<mxfile host="app.diagrams.net" agent="Mozilla/5.0 (Windows NT 10.0; Win64; x64) AppleWebKit/537.36 (KHTML, like Gecko) Chrome/135.0.0.0 Safari/537.36" version="27.0.2">
  <diagram name="Page-1" id="16e2658f-23c8-b752-8be9-c03fbebb8bbe">
    <mxGraphModel dx="12768" dy="4027" grid="1" gridSize="10" guides="1" tooltips="1" connect="1" arrows="1" fold="1" page="1" pageScale="1" pageWidth="4681" pageHeight="3300" background="light-dark(#FFFFFF,#E9E0E4)" math="0" shadow="0">
      <root>
        <mxCell id="0" />
        <mxCell id="1" parent="0" />
        <mxCell id="euKuNFVMx4uJ5uQXD7cl-123" value="" style="group" parent="1" vertex="1" connectable="0">
          <mxGeometry x="-380" y="30" width="840" height="1318" as="geometry" />
        </mxCell>
        <mxCell id="ShqEkO89j0M0p1C7cOZw-74" value="" style="shape=waypoint;sketch=0;fillStyle=solid;size=6;pointerEvents=1;points=[];resizable=0;rotatable=0;perimeter=centerPerimeter;snapToPoint=1;fontSize=36;strokeWidth=8;fillColor=light-dark(#000000,#000000);strokeColor=light-dark(#ae4132, #000000);fontStyle=1" parent="euKuNFVMx4uJ5uQXD7cl-123" vertex="1">
          <mxGeometry x="390" y="829" width="20" height="20" as="geometry" />
        </mxCell>
        <mxCell id="ShqEkO89j0M0p1C7cOZw-75" value="" style="shape=waypoint;sketch=0;fillStyle=solid;size=6;pointerEvents=1;points=[];resizable=0;rotatable=0;perimeter=centerPerimeter;snapToPoint=1;fontSize=36;strokeWidth=8;fillColor=light-dark(#000000,#000000);strokeColor=light-dark(#ae4132, #000000);fontStyle=1" parent="euKuNFVMx4uJ5uQXD7cl-123" vertex="1">
          <mxGeometry x="390" y="869" width="20" height="20" as="geometry" />
        </mxCell>
        <mxCell id="ShqEkO89j0M0p1C7cOZw-76" value="" style="shape=waypoint;sketch=0;fillStyle=solid;size=6;pointerEvents=1;points=[];resizable=0;rotatable=0;perimeter=centerPerimeter;snapToPoint=1;fontSize=36;strokeWidth=8;fillColor=light-dark(#000000,#000000);strokeColor=light-dark(#ae4132, #000000);fontStyle=1" parent="euKuNFVMx4uJ5uQXD7cl-123" vertex="1">
          <mxGeometry x="390" y="909" width="20" height="20" as="geometry" />
        </mxCell>
        <mxCell id="euKuNFVMx4uJ5uQXD7cl-73" value="" style="group;fontStyle=1" parent="euKuNFVMx4uJ5uQXD7cl-123" vertex="1" connectable="0">
          <mxGeometry width="762" height="358" as="geometry" />
        </mxCell>
        <object label="" id="ShqEkO89j0M0p1C7cOZw-232">
          <mxCell style="rounded=0;whiteSpace=wrap;html=1;container=0;fontSize=36;fontStyle=1" parent="euKuNFVMx4uJ5uQXD7cl-73" vertex="1">
            <mxGeometry x="241" y="198" width="319" height="160" as="geometry" />
          </mxCell>
        </object>
        <mxCell id="ShqEkO89j0M0p1C7cOZw-233" value="IR strip" style="text;strokeColor=none;fillColor=none;html=1;fontSize=36;fontStyle=1;verticalAlign=middle;align=center;container=0;" parent="euKuNFVMx4uJ5uQXD7cl-73" vertex="1">
          <mxGeometry x="356" y="258" width="100" height="40" as="geometry" />
        </mxCell>
        <mxCell id="V_p474o4OKsdejsqBRfG-17" value="" style="endArrow=none;html=1;rounded=0;entryX=0;entryY=0.25;entryDx=0;entryDy=0;strokeColor=light-dark(#000000,#FF0000);strokeWidth=8;fontStyle=1" parent="euKuNFVMx4uJ5uQXD7cl-73" target="V_p474o4OKsdejsqBRfG-15" edge="1">
          <mxGeometry width="50" height="50" relative="1" as="geometry">
            <mxPoint y="40" as="sourcePoint" />
            <mxPoint x="240" y="39" as="targetPoint" />
          </mxGeometry>
        </mxCell>
        <mxCell id="k-jXRPapljl0dU40elGh-35" value="Vcc" style="edgeLabel;html=1;align=center;verticalAlign=middle;resizable=0;points=[];fontSize=28;fontStyle=1" parent="V_p474o4OKsdejsqBRfG-17" vertex="1" connectable="0">
          <mxGeometry x="0.1672" y="1" relative="1" as="geometry">
            <mxPoint as="offset" />
          </mxGeometry>
        </mxCell>
        <mxCell id="V_p474o4OKsdejsqBRfG-19" value="" style="endArrow=none;html=1;rounded=0;strokeColor=light-dark(#000000,#000000);entryX=0;entryY=0.75;entryDx=0;entryDy=0;strokeWidth=8;fontStyle=1" parent="euKuNFVMx4uJ5uQXD7cl-73" target="V_p474o4OKsdejsqBRfG-15" edge="1">
          <mxGeometry width="50" height="50" relative="1" as="geometry">
            <mxPoint x="70" y="120" as="sourcePoint" />
            <mxPoint x="240" y="120" as="targetPoint" />
          </mxGeometry>
        </mxCell>
        <mxCell id="k-jXRPapljl0dU40elGh-38" value="GND" style="edgeLabel;html=1;align=center;verticalAlign=middle;resizable=0;points=[];fontSize=28;fontStyle=1" parent="V_p474o4OKsdejsqBRfG-19" vertex="1" connectable="0">
          <mxGeometry x="-0.1803" relative="1" as="geometry">
            <mxPoint as="offset" />
          </mxGeometry>
        </mxCell>
        <mxCell id="V_p474o4OKsdejsqBRfG-20" value="" style="endArrow=none;html=1;rounded=0;strokeColor=light-dark(#000000,#000000);exitX=1;exitY=0.75;exitDx=0;exitDy=0;strokeWidth=8;fontStyle=1" parent="euKuNFVMx4uJ5uQXD7cl-73" source="V_p474o4OKsdejsqBRfG-15" edge="1">
          <mxGeometry width="50" height="50" relative="1" as="geometry">
            <mxPoint x="570" y="120" as="sourcePoint" />
            <mxPoint x="760" y="120" as="targetPoint" />
          </mxGeometry>
        </mxCell>
        <mxCell id="k-jXRPapljl0dU40elGh-63" value="GND" style="edgeLabel;html=1;align=center;verticalAlign=middle;resizable=0;points=[];fontSize=28;fontStyle=1" parent="V_p474o4OKsdejsqBRfG-20" vertex="1" connectable="0">
          <mxGeometry x="-0.4045" relative="1" as="geometry">
            <mxPoint as="offset" />
          </mxGeometry>
        </mxCell>
        <mxCell id="V_p474o4OKsdejsqBRfG-21" value="" style="endArrow=none;html=1;rounded=0;strokeColor=light-dark(#000000,#FF0000);exitX=1;exitY=0.25;exitDx=0;exitDy=0;strokeWidth=8;fontStyle=1" parent="euKuNFVMx4uJ5uQXD7cl-73" source="V_p474o4OKsdejsqBRfG-15" edge="1">
          <mxGeometry width="50" height="50" relative="1" as="geometry">
            <mxPoint x="572" y="39" as="sourcePoint" />
            <mxPoint x="720" y="40" as="targetPoint" />
          </mxGeometry>
        </mxCell>
        <mxCell id="k-jXRPapljl0dU40elGh-59" value="Vcc" style="edgeLabel;html=1;align=center;verticalAlign=middle;resizable=0;points=[];fontSize=28;fontStyle=1" parent="V_p474o4OKsdejsqBRfG-21" vertex="1" connectable="0">
          <mxGeometry x="-0.2575" y="-1" relative="1" as="geometry">
            <mxPoint as="offset" />
          </mxGeometry>
        </mxCell>
        <object label="" id="V_p474o4OKsdejsqBRfG-15">
          <mxCell style="rounded=0;whiteSpace=wrap;html=1;container=0;fontSize=36;fontStyle=1" parent="euKuNFVMx4uJ5uQXD7cl-73" vertex="1">
            <mxGeometry x="240" width="318" height="160" as="geometry" />
          </mxCell>
        </object>
        <mxCell id="ShqEkO89j0M0p1C7cOZw-1" value="LED strip" style="text;strokeColor=none;fillColor=none;html=1;fontSize=36;fontStyle=1;verticalAlign=middle;align=center;container=0;" parent="euKuNFVMx4uJ5uQXD7cl-73" vertex="1">
          <mxGeometry x="355" y="60" width="100" height="40" as="geometry" />
        </mxCell>
        <mxCell id="euKuNFVMx4uJ5uQXD7cl-69" value="" style="endArrow=none;html=1;rounded=0;strokeColor=light-dark(#000000,#000000);exitX=1;exitY=0.75;exitDx=0;exitDy=0;strokeWidth=8;" parent="euKuNFVMx4uJ5uQXD7cl-73" edge="1">
          <mxGeometry width="50" height="50" relative="1" as="geometry">
            <mxPoint x="560" y="319" as="sourcePoint" />
            <mxPoint x="840" y="319" as="targetPoint" />
          </mxGeometry>
        </mxCell>
        <mxCell id="k-jXRPapljl0dU40elGh-64" value="GND" style="edgeLabel;html=1;align=center;verticalAlign=middle;resizable=0;points=[];fontSize=28;fontStyle=1" parent="euKuNFVMx4uJ5uQXD7cl-69" vertex="1" connectable="0">
          <mxGeometry x="-0.5763" relative="1" as="geometry">
            <mxPoint as="offset" />
          </mxGeometry>
        </mxCell>
        <mxCell id="euKuNFVMx4uJ5uQXD7cl-70" value="" style="endArrow=none;html=1;rounded=0;strokeColor=light-dark(#000000,#FF0000);exitX=0.997;exitY=0.262;exitDx=0;exitDy=0;exitPerimeter=0;strokeWidth=8;fontStyle=1" parent="euKuNFVMx4uJ5uQXD7cl-73" source="ShqEkO89j0M0p1C7cOZw-232" edge="1">
          <mxGeometry width="50" height="50" relative="1" as="geometry">
            <mxPoint x="560" y="239" as="sourcePoint" />
            <mxPoint x="800" y="239" as="targetPoint" />
          </mxGeometry>
        </mxCell>
        <mxCell id="k-jXRPapljl0dU40elGh-60" value="Vcc" style="edgeLabel;html=1;align=center;verticalAlign=middle;resizable=0;points=[];fontSize=28;fontStyle=1" parent="euKuNFVMx4uJ5uQXD7cl-70" vertex="1" connectable="0">
          <mxGeometry x="-0.5095" y="-1" relative="1" as="geometry">
            <mxPoint as="offset" />
          </mxGeometry>
        </mxCell>
        <mxCell id="euKuNFVMx4uJ5uQXD7cl-115" value="" style="endArrow=none;html=1;rounded=0;strokeColor=light-dark(#000000,#000000);strokeWidth=8;fontStyle=1" parent="euKuNFVMx4uJ5uQXD7cl-73" edge="1">
          <mxGeometry width="50" height="50" relative="1" as="geometry">
            <mxPoint x="760" y="2020" as="sourcePoint" />
            <mxPoint x="760" y="119" as="targetPoint" />
          </mxGeometry>
        </mxCell>
        <mxCell id="euKuNFVMx4uJ5uQXD7cl-116" value="&lt;span style=&quot;color: rgba(0, 0, 0, 0); font-family: monospace; font-size: 0px; text-align: start; background-color: rgb(27, 29, 30);&quot;&gt;%3CmxGraphModel%3E%3Croot%3E%3CmxCell%20id%3D%220%22%2F%3E%3CmxCell%20id%3D%221%22%20parent%3D%220%22%2F%3E%3CmxCell%20id%3D%222%22%20value%3D%22%22%20style%3D%22endArrow%3Dnone%3Bhtml%3D1%3Brounded%3D0%3BstrokeColor%3Dlight-dark(%23000000%2C%23FF0000)%3B%22%20edge%3D%221%22%20parent%3D%221%22%3E%3CmxGeometry%20width%3D%2250%22%20height%3D%2250%22%20relative%3D%221%22%20as%3D%22geometry%22%3E%3CmxPoint%20x%3D%22880%22%20y%3D%221080%22%20as%3D%22sourcePoint%22%2F%3E%3CmxPoint%20x%3D%22880%22%20y%3D%22120%22%20as%3D%22targetPoint%22%2F%3E%3C%2FmxGeometry%3E%3C%2FmxCell%3E%3C%2Froot%3E%3C%2FmxGraphModel%3E&lt;/span&gt;" style="edgeLabel;html=1;align=center;verticalAlign=middle;resizable=0;points=[];fontStyle=1" parent="euKuNFVMx4uJ5uQXD7cl-115" vertex="1" connectable="0">
          <mxGeometry x="0.7838" y="5" relative="1" as="geometry">
            <mxPoint as="offset" />
          </mxGeometry>
        </mxCell>
        <mxCell id="euKuNFVMx4uJ5uQXD7cl-119" value="" style="endArrow=none;html=1;rounded=0;strokeColor=light-dark(#000000,#FF0000);strokeWidth=8;fontStyle=1" parent="euKuNFVMx4uJ5uQXD7cl-73" edge="1">
          <mxGeometry width="50" height="50" relative="1" as="geometry">
            <mxPoint y="999" as="sourcePoint" />
            <mxPoint y="39" as="targetPoint" />
          </mxGeometry>
        </mxCell>
        <mxCell id="euKuNFVMx4uJ5uQXD7cl-121" value="" style="endArrow=none;html=1;rounded=0;strokeColor=light-dark(#000000,#000000);strokeWidth=8;fontStyle=1" parent="euKuNFVMx4uJ5uQXD7cl-73" edge="1">
          <mxGeometry width="50" height="50" relative="1" as="geometry">
            <mxPoint x="70" y="1080" as="sourcePoint" />
            <mxPoint x="70" y="120" as="targetPoint" />
          </mxGeometry>
        </mxCell>
        <mxCell id="euKuNFVMx4uJ5uQXD7cl-74" value="" style="group;fontStyle=1" parent="euKuNFVMx4uJ5uQXD7cl-123" vertex="1" connectable="0">
          <mxGeometry y="440" width="762" height="358" as="geometry" />
        </mxCell>
        <object label="" id="euKuNFVMx4uJ5uQXD7cl-75">
          <mxCell style="rounded=0;whiteSpace=wrap;html=1;container=0;fontSize=36;fontStyle=1" parent="euKuNFVMx4uJ5uQXD7cl-74" vertex="1">
            <mxGeometry x="241" y="198" width="319" height="160" as="geometry" />
          </mxCell>
        </object>
        <mxCell id="euKuNFVMx4uJ5uQXD7cl-76" value="IR strip" style="text;strokeColor=none;fillColor=none;html=1;fontSize=36;fontStyle=1;verticalAlign=middle;align=center;container=0;" parent="euKuNFVMx4uJ5uQXD7cl-74" vertex="1">
          <mxGeometry x="356" y="258" width="100" height="40" as="geometry" />
        </mxCell>
        <mxCell id="euKuNFVMx4uJ5uQXD7cl-77" value="" style="endArrow=none;html=1;rounded=0;entryX=0;entryY=0.25;entryDx=0;entryDy=0;strokeColor=light-dark(#000000,#FF0000);strokeWidth=8;fontStyle=1" parent="euKuNFVMx4uJ5uQXD7cl-74" target="euKuNFVMx4uJ5uQXD7cl-87" edge="1">
          <mxGeometry width="50" height="50" relative="1" as="geometry">
            <mxPoint y="40" as="sourcePoint" />
            <mxPoint x="240" y="39" as="targetPoint" />
          </mxGeometry>
        </mxCell>
        <mxCell id="k-jXRPapljl0dU40elGh-39" value="Vcc" style="edgeLabel;html=1;align=center;verticalAlign=middle;resizable=0;points=[];fontSize=28;fontStyle=1" parent="euKuNFVMx4uJ5uQXD7cl-77" vertex="1" connectable="0">
          <mxGeometry x="0.1583" relative="1" as="geometry">
            <mxPoint as="offset" />
          </mxGeometry>
        </mxCell>
        <mxCell id="euKuNFVMx4uJ5uQXD7cl-79" value="" style="endArrow=none;html=1;rounded=0;strokeColor=light-dark(#000000,#000000);entryX=0;entryY=0.75;entryDx=0;entryDy=0;strokeWidth=8;fontStyle=1" parent="euKuNFVMx4uJ5uQXD7cl-74" target="euKuNFVMx4uJ5uQXD7cl-87" edge="1">
          <mxGeometry width="50" height="50" relative="1" as="geometry">
            <mxPoint x="70" y="120" as="sourcePoint" />
            <mxPoint x="240" y="120" as="targetPoint" />
          </mxGeometry>
        </mxCell>
        <mxCell id="k-jXRPapljl0dU40elGh-41" value="GND" style="edgeLabel;html=1;align=center;verticalAlign=middle;resizable=0;points=[];fontSize=28;fontStyle=1" parent="euKuNFVMx4uJ5uQXD7cl-79" vertex="1" connectable="0">
          <mxGeometry x="-0.1791" relative="1" as="geometry">
            <mxPoint as="offset" />
          </mxGeometry>
        </mxCell>
        <mxCell id="euKuNFVMx4uJ5uQXD7cl-83" value="" style="endArrow=none;html=1;rounded=0;strokeColor=light-dark(#000000,#000000);exitX=1;exitY=0.75;exitDx=0;exitDy=0;strokeWidth=8;fontStyle=1" parent="euKuNFVMx4uJ5uQXD7cl-74" source="euKuNFVMx4uJ5uQXD7cl-87" edge="1">
          <mxGeometry width="50" height="50" relative="1" as="geometry">
            <mxPoint x="570" y="120" as="sourcePoint" />
            <mxPoint x="760" y="120" as="targetPoint" />
          </mxGeometry>
        </mxCell>
        <mxCell id="k-jXRPapljl0dU40elGh-65" value="GND" style="edgeLabel;html=1;align=center;verticalAlign=middle;resizable=0;points=[];fontSize=28;fontStyle=1" parent="euKuNFVMx4uJ5uQXD7cl-83" vertex="1" connectable="0">
          <mxGeometry x="-0.3929" y="1" relative="1" as="geometry">
            <mxPoint as="offset" />
          </mxGeometry>
        </mxCell>
        <mxCell id="euKuNFVMx4uJ5uQXD7cl-84" value="" style="endArrow=none;html=1;rounded=0;strokeColor=light-dark(#000000,#FF0000);exitX=1;exitY=0.25;exitDx=0;exitDy=0;strokeWidth=8;fontStyle=1" parent="euKuNFVMx4uJ5uQXD7cl-74" source="euKuNFVMx4uJ5uQXD7cl-87" edge="1">
          <mxGeometry width="50" height="50" relative="1" as="geometry">
            <mxPoint x="572" y="39" as="sourcePoint" />
            <mxPoint x="720" y="40" as="targetPoint" />
          </mxGeometry>
        </mxCell>
        <mxCell id="k-jXRPapljl0dU40elGh-61" value="Vcc" style="edgeLabel;html=1;align=center;verticalAlign=middle;resizable=0;points=[];fontSize=28;fontStyle=1" parent="euKuNFVMx4uJ5uQXD7cl-84" vertex="1" connectable="0">
          <mxGeometry x="-0.243" relative="1" as="geometry">
            <mxPoint as="offset" />
          </mxGeometry>
        </mxCell>
        <object label="" id="euKuNFVMx4uJ5uQXD7cl-87">
          <mxCell style="rounded=0;whiteSpace=wrap;html=1;container=0;fontSize=36;fontStyle=1" parent="euKuNFVMx4uJ5uQXD7cl-74" vertex="1">
            <mxGeometry x="240" width="318" height="160" as="geometry" />
          </mxCell>
        </object>
        <mxCell id="euKuNFVMx4uJ5uQXD7cl-88" value="LED strip" style="text;strokeColor=none;fillColor=none;html=1;fontSize=36;fontStyle=1;verticalAlign=middle;align=center;container=0;" parent="euKuNFVMx4uJ5uQXD7cl-74" vertex="1">
          <mxGeometry x="355" y="60" width="100" height="40" as="geometry" />
        </mxCell>
        <mxCell id="euKuNFVMx4uJ5uQXD7cl-89" value="" style="endArrow=none;html=1;rounded=0;strokeColor=light-dark(#000000,#000000);exitX=1;exitY=0.75;exitDx=0;exitDy=0;strokeWidth=8;" parent="euKuNFVMx4uJ5uQXD7cl-74" edge="1">
          <mxGeometry width="50" height="50" relative="1" as="geometry">
            <mxPoint x="560" y="319" as="sourcePoint" />
            <mxPoint x="840" y="319" as="targetPoint" />
          </mxGeometry>
        </mxCell>
        <mxCell id="k-jXRPapljl0dU40elGh-67" value="GND" style="edgeLabel;html=1;align=center;verticalAlign=middle;resizable=0;points=[];fontSize=28;fontStyle=1" parent="euKuNFVMx4uJ5uQXD7cl-89" vertex="1" connectable="0">
          <mxGeometry x="-0.5763" y="1" relative="1" as="geometry">
            <mxPoint as="offset" />
          </mxGeometry>
        </mxCell>
        <mxCell id="euKuNFVMx4uJ5uQXD7cl-90" value="" style="endArrow=none;html=1;rounded=0;strokeColor=light-dark(#000000,#FF0000);exitX=0.997;exitY=0.262;exitDx=0;exitDy=0;exitPerimeter=0;strokeWidth=8;fontStyle=1" parent="euKuNFVMx4uJ5uQXD7cl-74" source="euKuNFVMx4uJ5uQXD7cl-75" edge="1">
          <mxGeometry width="50" height="50" relative="1" as="geometry">
            <mxPoint x="560" y="239" as="sourcePoint" />
            <mxPoint x="800" y="239" as="targetPoint" />
          </mxGeometry>
        </mxCell>
        <mxCell id="k-jXRPapljl0dU40elGh-66" value="Vcc" style="edgeLabel;html=1;align=center;verticalAlign=middle;resizable=0;points=[];fontSize=28;fontStyle=1" parent="euKuNFVMx4uJ5uQXD7cl-90" vertex="1" connectable="0">
          <mxGeometry x="-0.4997" relative="1" as="geometry">
            <mxPoint as="offset" />
          </mxGeometry>
        </mxCell>
        <mxCell id="euKuNFVMx4uJ5uQXD7cl-93" value="" style="group;fontStyle=1" parent="euKuNFVMx4uJ5uQXD7cl-123" vertex="1" connectable="0">
          <mxGeometry y="960" width="762" height="358" as="geometry" />
        </mxCell>
        <object label="" id="euKuNFVMx4uJ5uQXD7cl-94">
          <mxCell style="rounded=0;whiteSpace=wrap;html=1;container=0;fontSize=36;fontStyle=1" parent="euKuNFVMx4uJ5uQXD7cl-93" vertex="1">
            <mxGeometry x="241" y="198" width="319" height="160" as="geometry" />
          </mxCell>
        </object>
        <mxCell id="euKuNFVMx4uJ5uQXD7cl-95" value="IR strip" style="text;strokeColor=none;fillColor=none;html=1;fontSize=36;fontStyle=1;verticalAlign=middle;align=center;container=0;" parent="euKuNFVMx4uJ5uQXD7cl-93" vertex="1">
          <mxGeometry x="356" y="258" width="100" height="40" as="geometry" />
        </mxCell>
        <mxCell id="euKuNFVMx4uJ5uQXD7cl-96" value="" style="endArrow=none;html=1;rounded=0;entryX=0;entryY=0.25;entryDx=0;entryDy=0;strokeColor=light-dark(#000000,#FF0000);strokeWidth=8;fontStyle=1" parent="euKuNFVMx4uJ5uQXD7cl-93" target="euKuNFVMx4uJ5uQXD7cl-106" edge="1">
          <mxGeometry width="50" height="50" relative="1" as="geometry">
            <mxPoint y="40" as="sourcePoint" />
            <mxPoint x="240" y="39" as="targetPoint" />
          </mxGeometry>
        </mxCell>
        <mxCell id="k-jXRPapljl0dU40elGh-42" value="Vcc" style="edgeLabel;html=1;align=center;verticalAlign=middle;resizable=0;points=[];fontSize=28;fontStyle=1" parent="euKuNFVMx4uJ5uQXD7cl-96" vertex="1" connectable="0">
          <mxGeometry x="0.1661" relative="1" as="geometry">
            <mxPoint as="offset" />
          </mxGeometry>
        </mxCell>
        <mxCell id="euKuNFVMx4uJ5uQXD7cl-98" value="" style="endArrow=none;html=1;rounded=0;strokeColor=light-dark(#000000,#000000);entryX=0;entryY=0.75;entryDx=0;entryDy=0;strokeWidth=8;fontStyle=1" parent="euKuNFVMx4uJ5uQXD7cl-93" target="euKuNFVMx4uJ5uQXD7cl-106" edge="1">
          <mxGeometry width="50" height="50" relative="1" as="geometry">
            <mxPoint x="70" y="120" as="sourcePoint" />
            <mxPoint x="240" y="120" as="targetPoint" />
          </mxGeometry>
        </mxCell>
        <mxCell id="k-jXRPapljl0dU40elGh-44" value="GND" style="edgeLabel;html=1;align=center;verticalAlign=middle;resizable=0;points=[];fontSize=28;fontStyle=1" parent="euKuNFVMx4uJ5uQXD7cl-98" vertex="1" connectable="0">
          <mxGeometry x="-0.1773" y="-1" relative="1" as="geometry">
            <mxPoint as="offset" />
          </mxGeometry>
        </mxCell>
        <mxCell id="euKuNFVMx4uJ5uQXD7cl-102" value="" style="endArrow=none;html=1;rounded=0;strokeColor=light-dark(#000000,#000000);exitX=1;exitY=0.75;exitDx=0;exitDy=0;strokeWidth=8;fontStyle=1" parent="euKuNFVMx4uJ5uQXD7cl-93" source="euKuNFVMx4uJ5uQXD7cl-106" edge="1">
          <mxGeometry width="50" height="50" relative="1" as="geometry">
            <mxPoint x="570" y="120" as="sourcePoint" />
            <mxPoint x="760" y="120" as="targetPoint" />
          </mxGeometry>
        </mxCell>
        <mxCell id="k-jXRPapljl0dU40elGh-69" value="GND" style="edgeLabel;html=1;align=center;verticalAlign=middle;resizable=0;points=[];fontSize=28;fontStyle=1" parent="euKuNFVMx4uJ5uQXD7cl-102" vertex="1" connectable="0">
          <mxGeometry x="-0.4045" relative="1" as="geometry">
            <mxPoint as="offset" />
          </mxGeometry>
        </mxCell>
        <mxCell id="euKuNFVMx4uJ5uQXD7cl-103" value="" style="endArrow=none;html=1;rounded=0;strokeColor=light-dark(#000000,#FF0000);exitX=1;exitY=0.25;exitDx=0;exitDy=0;strokeWidth=8;fontStyle=1" parent="euKuNFVMx4uJ5uQXD7cl-93" source="euKuNFVMx4uJ5uQXD7cl-106" edge="1">
          <mxGeometry width="50" height="50" relative="1" as="geometry">
            <mxPoint x="572" y="39" as="sourcePoint" />
            <mxPoint x="720" y="40" as="targetPoint" />
          </mxGeometry>
        </mxCell>
        <mxCell id="k-jXRPapljl0dU40elGh-68" value="Vcc" style="edgeLabel;html=1;align=center;verticalAlign=middle;resizable=0;points=[];fontSize=28;fontStyle=1" parent="euKuNFVMx4uJ5uQXD7cl-103" vertex="1" connectable="0">
          <mxGeometry x="-0.2575" relative="1" as="geometry">
            <mxPoint as="offset" />
          </mxGeometry>
        </mxCell>
        <object label="" id="euKuNFVMx4uJ5uQXD7cl-106">
          <mxCell style="rounded=0;whiteSpace=wrap;html=1;container=0;fontSize=36;fontStyle=1" parent="euKuNFVMx4uJ5uQXD7cl-93" vertex="1">
            <mxGeometry x="240" width="318" height="160" as="geometry" />
          </mxCell>
        </object>
        <mxCell id="euKuNFVMx4uJ5uQXD7cl-107" value="LED strip" style="text;strokeColor=none;fillColor=none;html=1;fontSize=36;fontStyle=1;verticalAlign=middle;align=center;container=0;" parent="euKuNFVMx4uJ5uQXD7cl-93" vertex="1">
          <mxGeometry x="355" y="60" width="100" height="40" as="geometry" />
        </mxCell>
        <mxCell id="euKuNFVMx4uJ5uQXD7cl-108" value="" style="endArrow=none;html=1;rounded=0;strokeColor=light-dark(#000000,#000000);exitX=1;exitY=0.75;exitDx=0;exitDy=0;strokeWidth=8;" parent="euKuNFVMx4uJ5uQXD7cl-93" edge="1">
          <mxGeometry width="50" height="50" relative="1" as="geometry">
            <mxPoint x="560" y="319" as="sourcePoint" />
            <mxPoint x="840" y="319" as="targetPoint" />
          </mxGeometry>
        </mxCell>
        <mxCell id="k-jXRPapljl0dU40elGh-71" value="GND" style="edgeLabel;html=1;align=center;verticalAlign=middle;resizable=0;points=[];fontSize=28;fontStyle=1" parent="euKuNFVMx4uJ5uQXD7cl-108" vertex="1" connectable="0">
          <mxGeometry x="-0.5931" y="-1" relative="1" as="geometry">
            <mxPoint as="offset" />
          </mxGeometry>
        </mxCell>
        <mxCell id="euKuNFVMx4uJ5uQXD7cl-109" value="" style="endArrow=none;html=1;rounded=0;strokeColor=light-dark(#000000,#FF0000);exitX=0.997;exitY=0.262;exitDx=0;exitDy=0;exitPerimeter=0;strokeWidth=8;fontStyle=1" parent="euKuNFVMx4uJ5uQXD7cl-93" source="euKuNFVMx4uJ5uQXD7cl-94" edge="1">
          <mxGeometry width="50" height="50" relative="1" as="geometry">
            <mxPoint x="560" y="239" as="sourcePoint" />
            <mxPoint x="800" y="239" as="targetPoint" />
          </mxGeometry>
        </mxCell>
        <mxCell id="k-jXRPapljl0dU40elGh-70" value="Vcc" style="edgeLabel;html=1;align=center;verticalAlign=middle;resizable=0;points=[];fontSize=28;fontStyle=1" parent="euKuNFVMx4uJ5uQXD7cl-109" vertex="1" connectable="0">
          <mxGeometry x="-0.5193" y="-1" relative="1" as="geometry">
            <mxPoint as="offset" />
          </mxGeometry>
        </mxCell>
        <mxCell id="euKuNFVMx4uJ5uQXD7cl-112" value="" style="endArrow=none;html=1;rounded=0;strokeColor=light-dark(#000000,#FF0000);strokeWidth=8;fontStyle=1" parent="euKuNFVMx4uJ5uQXD7cl-123" edge="1">
          <mxGeometry width="50" height="50" relative="1" as="geometry">
            <mxPoint x="800" y="2150" as="sourcePoint" />
            <mxPoint x="800" y="240" as="targetPoint" />
          </mxGeometry>
        </mxCell>
        <mxCell id="euKuNFVMx4uJ5uQXD7cl-113" value="" style="endArrow=none;html=1;rounded=0;strokeColor=light-dark(#000000,#FF0000);strokeWidth=8;fontStyle=1" parent="euKuNFVMx4uJ5uQXD7cl-123" edge="1">
          <mxGeometry width="50" height="50" relative="1" as="geometry">
            <mxPoint x="720" y="1940" as="sourcePoint" />
            <mxPoint x="720" y="40" as="targetPoint" />
          </mxGeometry>
        </mxCell>
        <mxCell id="euKuNFVMx4uJ5uQXD7cl-114" value="&lt;span style=&quot;color: rgba(0, 0, 0, 0); font-family: monospace; font-size: 0px; text-align: start; background-color: rgb(27, 29, 30);&quot;&gt;%3CmxGraphModel%3E%3Croot%3E%3CmxCell%20id%3D%220%22%2F%3E%3CmxCell%20id%3D%221%22%20parent%3D%220%22%2F%3E%3CmxCell%20id%3D%222%22%20value%3D%22%22%20style%3D%22endArrow%3Dnone%3Bhtml%3D1%3Brounded%3D0%3BstrokeColor%3Dlight-dark(%23000000%2C%23FF0000)%3B%22%20edge%3D%221%22%20parent%3D%221%22%3E%3CmxGeometry%20width%3D%2250%22%20height%3D%2250%22%20relative%3D%221%22%20as%3D%22geometry%22%3E%3CmxPoint%20x%3D%22880%22%20y%3D%221080%22%20as%3D%22sourcePoint%22%2F%3E%3CmxPoint%20x%3D%22880%22%20y%3D%22120%22%20as%3D%22targetPoint%22%2F%3E%3C%2FmxGeometry%3E%3C%2FmxCell%3E%3C%2Froot%3E%3C%2FmxGraphModel%3E&lt;/span&gt;" style="edgeLabel;html=1;align=center;verticalAlign=middle;resizable=0;points=[];fontStyle=1" parent="euKuNFVMx4uJ5uQXD7cl-113" vertex="1" connectable="0">
          <mxGeometry x="0.7838" y="5" relative="1" as="geometry">
            <mxPoint as="offset" />
          </mxGeometry>
        </mxCell>
        <mxCell id="euKuNFVMx4uJ5uQXD7cl-117" value="" style="endArrow=none;html=1;rounded=0;strokeColor=light-dark(#000000,#000000);strokeWidth=8;" parent="euKuNFVMx4uJ5uQXD7cl-123" edge="1">
          <mxGeometry width="50" height="50" relative="1" as="geometry">
            <mxPoint x="840" y="2220" as="sourcePoint" />
            <mxPoint x="840" y="320" as="targetPoint" />
          </mxGeometry>
        </mxCell>
        <mxCell id="euKuNFVMx4uJ5uQXD7cl-118" value="&lt;span style=&quot;color: rgba(0, 0, 0, 0); font-family: monospace; font-size: 0px; text-align: start; background-color: rgb(27, 29, 30);&quot;&gt;%3CmxGraphModel%3E%3Croot%3E%3CmxCell%20id%3D%220%22%2F%3E%3CmxCell%20id%3D%221%22%20parent%3D%220%22%2F%3E%3CmxCell%20id%3D%222%22%20value%3D%22%22%20style%3D%22endArrow%3Dnone%3Bhtml%3D1%3Brounded%3D0%3BstrokeColor%3Dlight-dark(%23000000%2C%23FF0000)%3B%22%20edge%3D%221%22%20parent%3D%221%22%3E%3CmxGeometry%20width%3D%2250%22%20height%3D%2250%22%20relative%3D%221%22%20as%3D%22geometry%22%3E%3CmxPoint%20x%3D%22880%22%20y%3D%221080%22%20as%3D%22sourcePoint%22%2F%3E%3CmxPoint%20x%3D%22880%22%20y%3D%22120%22%20as%3D%22targetPoint%22%2F%3E%3C%2FmxGeometry%3E%3C%2FmxCell%3E%3C%2Froot%3E%3C%2FmxGraphModel%3E&lt;/span&gt;" style="edgeLabel;html=1;align=center;verticalAlign=middle;resizable=0;points=[];fontStyle=1" parent="euKuNFVMx4uJ5uQXD7cl-117" vertex="1" connectable="0">
          <mxGeometry x="0.7838" y="5" relative="1" as="geometry">
            <mxPoint as="offset" />
          </mxGeometry>
        </mxCell>
        <mxCell id="euKuNFVMx4uJ5uQXD7cl-124" value="" style="group;strokeWidth=8;" parent="1" vertex="1" connectable="0">
          <mxGeometry x="-380" y="1930" width="840" height="1318" as="geometry" />
        </mxCell>
        <mxCell id="euKuNFVMx4uJ5uQXD7cl-125" value="" style="shape=waypoint;sketch=0;fillStyle=solid;size=6;pointerEvents=1;points=[];fillColor=none;resizable=0;rotatable=0;perimeter=centerPerimeter;snapToPoint=1;strokeWidth=8;strokeColor=light-dark(default, #121212);fontSize=36;fontStyle=1" parent="euKuNFVMx4uJ5uQXD7cl-124" vertex="1">
          <mxGeometry x="390" y="829" width="20" height="20" as="geometry" />
        </mxCell>
        <mxCell id="euKuNFVMx4uJ5uQXD7cl-126" value="" style="shape=waypoint;sketch=0;fillStyle=solid;size=6;pointerEvents=1;points=[];fillColor=none;resizable=0;rotatable=0;perimeter=centerPerimeter;snapToPoint=1;strokeWidth=8;strokeColor=light-dark(default, #121212);fontSize=36;fontStyle=1" parent="euKuNFVMx4uJ5uQXD7cl-124" vertex="1">
          <mxGeometry x="390" y="869" width="20" height="20" as="geometry" />
        </mxCell>
        <mxCell id="euKuNFVMx4uJ5uQXD7cl-127" value="" style="shape=waypoint;sketch=0;fillStyle=solid;size=6;pointerEvents=1;points=[];fillColor=none;resizable=0;rotatable=0;perimeter=centerPerimeter;snapToPoint=1;strokeWidth=8;strokeColor=light-dark(default, #121212);fontSize=36;fontStyle=1" parent="euKuNFVMx4uJ5uQXD7cl-124" vertex="1">
          <mxGeometry x="390" y="909" width="20" height="20" as="geometry" />
        </mxCell>
        <mxCell id="euKuNFVMx4uJ5uQXD7cl-128" value="" style="group;fontStyle=1" parent="euKuNFVMx4uJ5uQXD7cl-124" vertex="1" connectable="0">
          <mxGeometry width="762" height="358" as="geometry" />
        </mxCell>
        <object label="" id="euKuNFVMx4uJ5uQXD7cl-129">
          <mxCell style="rounded=0;whiteSpace=wrap;html=1;container=0;fontSize=36;fontStyle=1" parent="euKuNFVMx4uJ5uQXD7cl-128" vertex="1">
            <mxGeometry x="241" y="198" width="319" height="160" as="geometry" />
          </mxCell>
        </object>
        <mxCell id="euKuNFVMx4uJ5uQXD7cl-130" value="IR strip" style="text;strokeColor=none;fillColor=none;html=1;fontSize=36;fontStyle=1;verticalAlign=middle;align=center;container=0;" parent="euKuNFVMx4uJ5uQXD7cl-128" vertex="1">
          <mxGeometry x="356" y="258" width="100" height="40" as="geometry" />
        </mxCell>
        <mxCell id="euKuNFVMx4uJ5uQXD7cl-131" value="" style="endArrow=none;html=1;rounded=0;entryX=0;entryY=0.25;entryDx=0;entryDy=0;strokeColor=light-dark(#000000,#FF0000);strokeWidth=8;fontStyle=1" parent="euKuNFVMx4uJ5uQXD7cl-128" target="euKuNFVMx4uJ5uQXD7cl-141" edge="1">
          <mxGeometry width="50" height="50" relative="1" as="geometry">
            <mxPoint y="40" as="sourcePoint" />
            <mxPoint x="240" y="39" as="targetPoint" />
          </mxGeometry>
        </mxCell>
        <mxCell id="k-jXRPapljl0dU40elGh-45" value="Vcc" style="edgeLabel;html=1;align=center;verticalAlign=middle;resizable=0;points=[];fontSize=28;fontStyle=1" parent="euKuNFVMx4uJ5uQXD7cl-131" vertex="1" connectable="0">
          <mxGeometry x="0.1645" relative="1" as="geometry">
            <mxPoint as="offset" />
          </mxGeometry>
        </mxCell>
        <mxCell id="euKuNFVMx4uJ5uQXD7cl-133" value="" style="endArrow=none;html=1;rounded=0;strokeColor=light-dark(#000000,#000000);entryX=0;entryY=0.75;entryDx=0;entryDy=0;strokeWidth=8;fontSize=36;fontStyle=1" parent="euKuNFVMx4uJ5uQXD7cl-128" target="euKuNFVMx4uJ5uQXD7cl-141" edge="1">
          <mxGeometry width="50" height="50" relative="1" as="geometry">
            <mxPoint x="70" y="120" as="sourcePoint" />
            <mxPoint x="240" y="120" as="targetPoint" />
          </mxGeometry>
        </mxCell>
        <mxCell id="k-jXRPapljl0dU40elGh-47" value="GND" style="edgeLabel;html=1;align=center;verticalAlign=middle;resizable=0;points=[];fontSize=28;fontStyle=1" parent="euKuNFVMx4uJ5uQXD7cl-133" vertex="1" connectable="0">
          <mxGeometry x="-0.168" y="-1" relative="1" as="geometry">
            <mxPoint as="offset" />
          </mxGeometry>
        </mxCell>
        <mxCell id="euKuNFVMx4uJ5uQXD7cl-137" value="" style="endArrow=none;html=1;rounded=0;strokeColor=light-dark(#000000,#000000);exitX=1;exitY=0.75;exitDx=0;exitDy=0;strokeWidth=8;fontSize=36;fontStyle=1" parent="euKuNFVMx4uJ5uQXD7cl-128" source="euKuNFVMx4uJ5uQXD7cl-141" edge="1">
          <mxGeometry width="50" height="50" relative="1" as="geometry">
            <mxPoint x="570" y="120" as="sourcePoint" />
            <mxPoint x="760" y="120" as="targetPoint" />
          </mxGeometry>
        </mxCell>
        <mxCell id="k-jXRPapljl0dU40elGh-73" value="GND" style="edgeLabel;html=1;align=center;verticalAlign=middle;resizable=0;points=[];fontSize=28;fontStyle=1" parent="euKuNFVMx4uJ5uQXD7cl-137" vertex="1" connectable="0">
          <mxGeometry x="-0.4132" y="1" relative="1" as="geometry">
            <mxPoint x="1" as="offset" />
          </mxGeometry>
        </mxCell>
        <mxCell id="euKuNFVMx4uJ5uQXD7cl-138" value="" style="endArrow=none;html=1;rounded=0;strokeColor=light-dark(#000000,#FF0000);exitX=1;exitY=0.25;exitDx=0;exitDy=0;strokeWidth=8;fontSize=36;fontStyle=1" parent="euKuNFVMx4uJ5uQXD7cl-128" source="euKuNFVMx4uJ5uQXD7cl-141" edge="1">
          <mxGeometry width="50" height="50" relative="1" as="geometry">
            <mxPoint x="572" y="39" as="sourcePoint" />
            <mxPoint x="720" y="40" as="targetPoint" />
          </mxGeometry>
        </mxCell>
        <mxCell id="k-jXRPapljl0dU40elGh-72" value="&lt;div&gt;Vcc&lt;/div&gt;" style="edgeLabel;html=1;align=center;verticalAlign=middle;resizable=0;points=[];fontSize=28;fontStyle=1" parent="euKuNFVMx4uJ5uQXD7cl-138" vertex="1" connectable="0">
          <mxGeometry x="-0.2683" relative="1" as="geometry">
            <mxPoint x="1" as="offset" />
          </mxGeometry>
        </mxCell>
        <object label="" id="euKuNFVMx4uJ5uQXD7cl-141">
          <mxCell style="rounded=0;whiteSpace=wrap;html=1;container=0;fontSize=36;fontStyle=1" parent="euKuNFVMx4uJ5uQXD7cl-128" vertex="1">
            <mxGeometry x="240" width="318" height="160" as="geometry" />
          </mxCell>
        </object>
        <mxCell id="k-jXRPapljl0dU40elGh-58" value="" style="edgeStyle=orthogonalEdgeStyle;rounded=0;orthogonalLoop=1;jettySize=auto;html=1;fontStyle=1" parent="euKuNFVMx4uJ5uQXD7cl-128" source="euKuNFVMx4uJ5uQXD7cl-142" target="euKuNFVMx4uJ5uQXD7cl-129" edge="1">
          <mxGeometry relative="1" as="geometry" />
        </mxCell>
        <mxCell id="euKuNFVMx4uJ5uQXD7cl-142" value="LED strip" style="text;strokeColor=none;fillColor=none;html=1;fontSize=36;fontStyle=1;verticalAlign=middle;align=center;container=0;" parent="euKuNFVMx4uJ5uQXD7cl-128" vertex="1">
          <mxGeometry x="355" y="60" width="100" height="40" as="geometry" />
        </mxCell>
        <mxCell id="euKuNFVMx4uJ5uQXD7cl-143" value="" style="endArrow=none;html=1;rounded=0;strokeColor=light-dark(#000000,#000000);exitX=1;exitY=0.75;exitDx=0;exitDy=0;strokeWidth=8;" parent="euKuNFVMx4uJ5uQXD7cl-128" edge="1">
          <mxGeometry width="50" height="50" relative="1" as="geometry">
            <mxPoint x="560" y="319" as="sourcePoint" />
            <mxPoint x="840" y="319" as="targetPoint" />
          </mxGeometry>
        </mxCell>
        <mxCell id="k-jXRPapljl0dU40elGh-75" value="GND" style="edgeLabel;html=1;align=center;verticalAlign=middle;resizable=0;points=[];fontSize=28;fontStyle=1" parent="euKuNFVMx4uJ5uQXD7cl-143" vertex="1" connectable="0">
          <mxGeometry x="-0.5909" y="3" relative="1" as="geometry">
            <mxPoint as="offset" />
          </mxGeometry>
        </mxCell>
        <mxCell id="euKuNFVMx4uJ5uQXD7cl-144" value="" style="endArrow=none;html=1;rounded=0;strokeColor=light-dark(#000000,#FF0000);exitX=0.997;exitY=0.262;exitDx=0;exitDy=0;exitPerimeter=0;strokeWidth=8;fontSize=24;fontStyle=1" parent="euKuNFVMx4uJ5uQXD7cl-128" source="euKuNFVMx4uJ5uQXD7cl-129" edge="1">
          <mxGeometry width="50" height="50" relative="1" as="geometry">
            <mxPoint x="560" y="239" as="sourcePoint" />
            <mxPoint x="800" y="239" as="targetPoint" />
          </mxGeometry>
        </mxCell>
        <mxCell id="k-jXRPapljl0dU40elGh-74" value="Vcc" style="edgeLabel;html=1;align=center;verticalAlign=middle;resizable=0;points=[];fontSize=28;fontStyle=1" parent="euKuNFVMx4uJ5uQXD7cl-144" vertex="1" connectable="0">
          <mxGeometry x="-0.5167" y="1" relative="1" as="geometry">
            <mxPoint as="offset" />
          </mxGeometry>
        </mxCell>
        <mxCell id="euKuNFVMx4uJ5uQXD7cl-147" value="" style="endArrow=none;html=1;rounded=0;strokeColor=light-dark(#000000,#000000);strokeWidth=8;fontSize=36;fontStyle=1" parent="euKuNFVMx4uJ5uQXD7cl-128" edge="1">
          <mxGeometry width="50" height="50" relative="1" as="geometry">
            <mxPoint x="760" y="1079" as="sourcePoint" />
            <mxPoint x="760" y="119" as="targetPoint" />
          </mxGeometry>
        </mxCell>
        <mxCell id="euKuNFVMx4uJ5uQXD7cl-149" value="" style="endArrow=none;html=1;rounded=0;strokeColor=light-dark(#000000,#FF0000);strokeWidth=8;fontStyle=1" parent="euKuNFVMx4uJ5uQXD7cl-128" edge="1">
          <mxGeometry width="50" height="50" relative="1" as="geometry">
            <mxPoint y="999" as="sourcePoint" />
            <mxPoint y="39" as="targetPoint" />
          </mxGeometry>
        </mxCell>
        <mxCell id="euKuNFVMx4uJ5uQXD7cl-150" value="" style="endArrow=none;html=1;rounded=0;strokeColor=light-dark(#000000,#000000);strokeWidth=8;fontSize=28;fontStyle=1" parent="euKuNFVMx4uJ5uQXD7cl-128" edge="1">
          <mxGeometry width="50" height="50" relative="1" as="geometry">
            <mxPoint x="70" y="1080" as="sourcePoint" />
            <mxPoint x="70" y="120" as="targetPoint" />
          </mxGeometry>
        </mxCell>
        <mxCell id="euKuNFVMx4uJ5uQXD7cl-151" value="" style="group;strokeWidth=8;fontStyle=1" parent="euKuNFVMx4uJ5uQXD7cl-124" vertex="1" connectable="0">
          <mxGeometry y="440" width="762" height="358" as="geometry" />
        </mxCell>
        <object label="" id="euKuNFVMx4uJ5uQXD7cl-152">
          <mxCell style="rounded=0;whiteSpace=wrap;html=1;container=0;fontSize=36;fontStyle=1" parent="euKuNFVMx4uJ5uQXD7cl-151" vertex="1">
            <mxGeometry x="241" y="198" width="319" height="160" as="geometry" />
          </mxCell>
        </object>
        <mxCell id="euKuNFVMx4uJ5uQXD7cl-153" value="IR strip" style="text;strokeColor=none;fillColor=none;html=1;fontSize=36;fontStyle=1;verticalAlign=middle;align=center;container=0;" parent="euKuNFVMx4uJ5uQXD7cl-151" vertex="1">
          <mxGeometry x="356" y="258" width="100" height="40" as="geometry" />
        </mxCell>
        <mxCell id="euKuNFVMx4uJ5uQXD7cl-154" value="" style="endArrow=none;html=1;rounded=0;entryX=0;entryY=0.25;entryDx=0;entryDy=0;strokeColor=light-dark(#000000,#FF0000);strokeWidth=8;fontStyle=1" parent="euKuNFVMx4uJ5uQXD7cl-151" target="euKuNFVMx4uJ5uQXD7cl-164" edge="1">
          <mxGeometry width="50" height="50" relative="1" as="geometry">
            <mxPoint y="40" as="sourcePoint" />
            <mxPoint x="240" y="39" as="targetPoint" />
          </mxGeometry>
        </mxCell>
        <mxCell id="k-jXRPapljl0dU40elGh-48" value="Vcc" style="edgeLabel;html=1;align=center;verticalAlign=middle;resizable=0;points=[];fontSize=28;fontStyle=1" parent="euKuNFVMx4uJ5uQXD7cl-154" vertex="1" connectable="0">
          <mxGeometry x="0.1559" y="1" relative="1" as="geometry">
            <mxPoint as="offset" />
          </mxGeometry>
        </mxCell>
        <mxCell id="euKuNFVMx4uJ5uQXD7cl-156" value="" style="endArrow=none;html=1;rounded=0;strokeColor=light-dark(#000000,#000000);entryX=0;entryY=0.75;entryDx=0;entryDy=0;strokeWidth=8;fontSize=36;fontStyle=1" parent="euKuNFVMx4uJ5uQXD7cl-151" target="euKuNFVMx4uJ5uQXD7cl-164" edge="1">
          <mxGeometry width="50" height="50" relative="1" as="geometry">
            <mxPoint x="70" y="120" as="sourcePoint" />
            <mxPoint x="240" y="120" as="targetPoint" />
          </mxGeometry>
        </mxCell>
        <mxCell id="k-jXRPapljl0dU40elGh-50" value="GND" style="edgeLabel;html=1;align=center;verticalAlign=middle;resizable=0;points=[];fontSize=28;fontStyle=1" parent="euKuNFVMx4uJ5uQXD7cl-156" vertex="1" connectable="0">
          <mxGeometry x="-0.1755" relative="1" as="geometry">
            <mxPoint as="offset" />
          </mxGeometry>
        </mxCell>
        <mxCell id="euKuNFVMx4uJ5uQXD7cl-160" value="" style="endArrow=none;html=1;rounded=0;strokeColor=light-dark(#000000,#000000);exitX=1;exitY=0.75;exitDx=0;exitDy=0;strokeWidth=8;fontSize=36;fontStyle=1" parent="euKuNFVMx4uJ5uQXD7cl-151" source="euKuNFVMx4uJ5uQXD7cl-164" edge="1">
          <mxGeometry width="50" height="50" relative="1" as="geometry">
            <mxPoint x="570" y="120" as="sourcePoint" />
            <mxPoint x="760" y="120" as="targetPoint" />
          </mxGeometry>
        </mxCell>
        <mxCell id="k-jXRPapljl0dU40elGh-77" value="GND" style="edgeLabel;html=1;align=center;verticalAlign=middle;resizable=0;points=[];fontSize=28;fontStyle=1" parent="euKuNFVMx4uJ5uQXD7cl-160" vertex="1" connectable="0">
          <mxGeometry x="-0.4132" y="3" relative="1" as="geometry">
            <mxPoint x="1" as="offset" />
          </mxGeometry>
        </mxCell>
        <mxCell id="euKuNFVMx4uJ5uQXD7cl-161" value="" style="endArrow=none;html=1;rounded=0;strokeColor=light-dark(#000000,#FF0000);exitX=1;exitY=0.25;exitDx=0;exitDy=0;strokeWidth=8;fontSize=36;fontStyle=1" parent="euKuNFVMx4uJ5uQXD7cl-151" source="euKuNFVMx4uJ5uQXD7cl-164" edge="1">
          <mxGeometry width="50" height="50" relative="1" as="geometry">
            <mxPoint x="572" y="39" as="sourcePoint" />
            <mxPoint x="720" y="40" as="targetPoint" />
          </mxGeometry>
        </mxCell>
        <mxCell id="k-jXRPapljl0dU40elGh-76" value="Vcc" style="edgeLabel;html=1;align=center;verticalAlign=middle;resizable=0;points=[];fontSize=28;fontStyle=1" parent="euKuNFVMx4uJ5uQXD7cl-161" vertex="1" connectable="0">
          <mxGeometry x="-0.2506" y="1" relative="1" as="geometry">
            <mxPoint x="1" as="offset" />
          </mxGeometry>
        </mxCell>
        <object label="" id="euKuNFVMx4uJ5uQXD7cl-164">
          <mxCell style="rounded=0;whiteSpace=wrap;html=1;container=0;fontSize=36;fontStyle=1" parent="euKuNFVMx4uJ5uQXD7cl-151" vertex="1">
            <mxGeometry x="240" width="318" height="160" as="geometry" />
          </mxCell>
        </object>
        <mxCell id="euKuNFVMx4uJ5uQXD7cl-165" value="LED strip" style="text;strokeColor=none;fillColor=none;html=1;fontSize=36;fontStyle=1;verticalAlign=middle;align=center;container=0;" parent="euKuNFVMx4uJ5uQXD7cl-151" vertex="1">
          <mxGeometry x="355" y="60" width="100" height="40" as="geometry" />
        </mxCell>
        <mxCell id="euKuNFVMx4uJ5uQXD7cl-166" value="" style="endArrow=none;html=1;rounded=0;strokeColor=light-dark(#000000,#000000);exitX=1;exitY=0.75;exitDx=0;exitDy=0;strokeWidth=8;" parent="euKuNFVMx4uJ5uQXD7cl-151" edge="1">
          <mxGeometry width="50" height="50" relative="1" as="geometry">
            <mxPoint x="560" y="319" as="sourcePoint" />
            <mxPoint x="840" y="319" as="targetPoint" />
          </mxGeometry>
        </mxCell>
        <mxCell id="k-jXRPapljl0dU40elGh-79" value="GND" style="edgeLabel;html=1;align=center;verticalAlign=middle;resizable=0;points=[];fontSize=28;fontStyle=1" parent="euKuNFVMx4uJ5uQXD7cl-166" vertex="1" connectable="0">
          <mxGeometry x="-0.5807" y="1" relative="1" as="geometry">
            <mxPoint as="offset" />
          </mxGeometry>
        </mxCell>
        <mxCell id="euKuNFVMx4uJ5uQXD7cl-167" value="" style="endArrow=none;html=1;rounded=0;strokeColor=light-dark(#000000,#FF0000);exitX=0.997;exitY=0.262;exitDx=0;exitDy=0;exitPerimeter=0;strokeWidth=8;fontSize=24;fontStyle=1" parent="euKuNFVMx4uJ5uQXD7cl-151" source="euKuNFVMx4uJ5uQXD7cl-152" edge="1">
          <mxGeometry width="50" height="50" relative="1" as="geometry">
            <mxPoint x="560" y="239" as="sourcePoint" />
            <mxPoint x="800" y="239" as="targetPoint" />
          </mxGeometry>
        </mxCell>
        <mxCell id="k-jXRPapljl0dU40elGh-78" value="Vcc" style="edgeLabel;html=1;align=center;verticalAlign=middle;resizable=0;points=[];fontSize=28;fontStyle=1" parent="euKuNFVMx4uJ5uQXD7cl-167" vertex="1" connectable="0">
          <mxGeometry x="-0.4929" y="3" relative="1" as="geometry">
            <mxPoint as="offset" />
          </mxGeometry>
        </mxCell>
        <mxCell id="euKuNFVMx4uJ5uQXD7cl-170" value="" style="group" parent="euKuNFVMx4uJ5uQXD7cl-124" vertex="1" connectable="0">
          <mxGeometry y="960" width="762" height="358" as="geometry" />
        </mxCell>
        <object label="" id="euKuNFVMx4uJ5uQXD7cl-171">
          <mxCell style="rounded=0;whiteSpace=wrap;html=1;container=0;fontSize=36;" parent="euKuNFVMx4uJ5uQXD7cl-170" vertex="1">
            <mxGeometry x="241" y="198" width="319" height="160" as="geometry" />
          </mxCell>
        </object>
        <mxCell id="euKuNFVMx4uJ5uQXD7cl-172" value="IR strip" style="text;strokeColor=none;fillColor=none;html=1;fontSize=36;fontStyle=1;verticalAlign=middle;align=center;container=0;" parent="euKuNFVMx4uJ5uQXD7cl-170" vertex="1">
          <mxGeometry x="356" y="258" width="100" height="40" as="geometry" />
        </mxCell>
        <mxCell id="euKuNFVMx4uJ5uQXD7cl-173" value="" style="endArrow=none;html=1;rounded=0;entryX=0;entryY=0.25;entryDx=0;entryDy=0;strokeColor=light-dark(#000000,#FF0000);strokeWidth=8;fontStyle=1" parent="euKuNFVMx4uJ5uQXD7cl-170" target="euKuNFVMx4uJ5uQXD7cl-183" edge="1">
          <mxGeometry width="50" height="50" relative="1" as="geometry">
            <mxPoint y="40" as="sourcePoint" />
            <mxPoint x="240" y="39" as="targetPoint" />
          </mxGeometry>
        </mxCell>
        <mxCell id="k-jXRPapljl0dU40elGh-51" value="Vcc" style="edgeLabel;html=1;align=center;verticalAlign=middle;resizable=0;points=[];fontSize=28;fontStyle=1" parent="euKuNFVMx4uJ5uQXD7cl-173" vertex="1" connectable="0">
          <mxGeometry x="0.1641" y="-1" relative="1" as="geometry">
            <mxPoint as="offset" />
          </mxGeometry>
        </mxCell>
        <mxCell id="euKuNFVMx4uJ5uQXD7cl-175" value="" style="endArrow=none;html=1;rounded=0;strokeColor=light-dark(#000000,#000000);entryX=0;entryY=0.75;entryDx=0;entryDy=0;strokeWidth=8;fontSize=36;fontStyle=1" parent="euKuNFVMx4uJ5uQXD7cl-170" target="euKuNFVMx4uJ5uQXD7cl-183" edge="1">
          <mxGeometry width="50" height="50" relative="1" as="geometry">
            <mxPoint x="70" y="120" as="sourcePoint" />
            <mxPoint x="240" y="120" as="targetPoint" />
          </mxGeometry>
        </mxCell>
        <mxCell id="k-jXRPapljl0dU40elGh-53" value="GND" style="edgeLabel;html=1;align=center;verticalAlign=middle;resizable=0;points=[];fontSize=28;fontStyle=1" parent="euKuNFVMx4uJ5uQXD7cl-175" vertex="1" connectable="0">
          <mxGeometry x="-0.1778" y="-1" relative="1" as="geometry">
            <mxPoint as="offset" />
          </mxGeometry>
        </mxCell>
        <mxCell id="euKuNFVMx4uJ5uQXD7cl-179" value="" style="endArrow=none;html=1;rounded=0;strokeColor=light-dark(#000000,#000000);exitX=1;exitY=0.75;exitDx=0;exitDy=0;strokeWidth=8;fontSize=36;fontStyle=1" parent="euKuNFVMx4uJ5uQXD7cl-170" source="euKuNFVMx4uJ5uQXD7cl-183" edge="1">
          <mxGeometry width="50" height="50" relative="1" as="geometry">
            <mxPoint x="570" y="120" as="sourcePoint" />
            <mxPoint x="760" y="120" as="targetPoint" />
          </mxGeometry>
        </mxCell>
        <mxCell id="k-jXRPapljl0dU40elGh-81" value="GND" style="edgeLabel;html=1;align=center;verticalAlign=middle;resizable=0;points=[];fontSize=28;fontStyle=1" parent="euKuNFVMx4uJ5uQXD7cl-179" vertex="1" connectable="0">
          <mxGeometry x="-0.4132" y="2" relative="1" as="geometry">
            <mxPoint x="1" as="offset" />
          </mxGeometry>
        </mxCell>
        <mxCell id="euKuNFVMx4uJ5uQXD7cl-180" value="" style="endArrow=none;html=1;rounded=0;strokeColor=light-dark(#000000,#FF0000);exitX=1;exitY=0.25;exitDx=0;exitDy=0;strokeWidth=8;fontSize=36;fontStyle=1" parent="euKuNFVMx4uJ5uQXD7cl-170" source="euKuNFVMx4uJ5uQXD7cl-183" edge="1">
          <mxGeometry width="50" height="50" relative="1" as="geometry">
            <mxPoint x="572" y="39" as="sourcePoint" />
            <mxPoint x="720" y="40" as="targetPoint" />
          </mxGeometry>
        </mxCell>
        <mxCell id="k-jXRPapljl0dU40elGh-80" value="Vcc" style="edgeLabel;html=1;align=center;verticalAlign=middle;resizable=0;points=[];fontSize=28;fontStyle=1" parent="euKuNFVMx4uJ5uQXD7cl-180" vertex="1" connectable="0">
          <mxGeometry x="-0.2506" relative="1" as="geometry">
            <mxPoint x="1" as="offset" />
          </mxGeometry>
        </mxCell>
        <object label="" id="euKuNFVMx4uJ5uQXD7cl-183">
          <mxCell style="rounded=0;whiteSpace=wrap;html=1;container=0;fontSize=36;fontStyle=1" parent="euKuNFVMx4uJ5uQXD7cl-170" vertex="1">
            <mxGeometry x="240" width="318" height="160" as="geometry" />
          </mxCell>
        </object>
        <mxCell id="euKuNFVMx4uJ5uQXD7cl-184" value="LED strip" style="text;strokeColor=none;fillColor=none;html=1;fontSize=36;fontStyle=1;verticalAlign=middle;align=center;container=0;" parent="euKuNFVMx4uJ5uQXD7cl-170" vertex="1">
          <mxGeometry x="355" y="60" width="100" height="40" as="geometry" />
        </mxCell>
        <mxCell id="euKuNFVMx4uJ5uQXD7cl-185" value="" style="endArrow=none;html=1;rounded=0;strokeColor=light-dark(#000000,#000000);exitX=1;exitY=0.75;exitDx=0;exitDy=0;strokeWidth=8;" parent="euKuNFVMx4uJ5uQXD7cl-170" edge="1">
          <mxGeometry width="50" height="50" relative="1" as="geometry">
            <mxPoint x="560" y="319" as="sourcePoint" />
            <mxPoint x="840" y="319" as="targetPoint" />
          </mxGeometry>
        </mxCell>
        <mxCell id="k-jXRPapljl0dU40elGh-83" value="GND" style="edgeLabel;html=1;align=center;verticalAlign=middle;resizable=0;points=[];fontSize=28;fontStyle=1" parent="euKuNFVMx4uJ5uQXD7cl-185" vertex="1" connectable="0">
          <mxGeometry x="-0.5909" y="1" relative="1" as="geometry">
            <mxPoint as="offset" />
          </mxGeometry>
        </mxCell>
        <mxCell id="euKuNFVMx4uJ5uQXD7cl-186" value="" style="endArrow=none;html=1;rounded=0;strokeColor=light-dark(#000000,#FF0000);exitX=0.997;exitY=0.262;exitDx=0;exitDy=0;exitPerimeter=0;strokeWidth=8;fontSize=24;fontStyle=1" parent="euKuNFVMx4uJ5uQXD7cl-170" source="euKuNFVMx4uJ5uQXD7cl-171" edge="1">
          <mxGeometry width="50" height="50" relative="1" as="geometry">
            <mxPoint x="560" y="239" as="sourcePoint" />
            <mxPoint x="800" y="239" as="targetPoint" />
          </mxGeometry>
        </mxCell>
        <mxCell id="k-jXRPapljl0dU40elGh-82" value="Vcc" style="edgeLabel;html=1;align=center;verticalAlign=middle;resizable=0;points=[];fontSize=28;fontStyle=1" parent="euKuNFVMx4uJ5uQXD7cl-186" vertex="1" connectable="0">
          <mxGeometry x="-0.5048" y="2" relative="1" as="geometry">
            <mxPoint as="offset" />
          </mxGeometry>
        </mxCell>
        <mxCell id="euKuNFVMx4uJ5uQXD7cl-189" value="" style="endArrow=none;html=1;rounded=0;strokeColor=light-dark(#000000,#FF0000);strokeWidth=8;fontStyle=1" parent="euKuNFVMx4uJ5uQXD7cl-124" edge="1">
          <mxGeometry width="50" height="50" relative="1" as="geometry">
            <mxPoint x="800" y="1200" as="sourcePoint" />
            <mxPoint x="800" y="240" as="targetPoint" />
          </mxGeometry>
        </mxCell>
        <mxCell id="euKuNFVMx4uJ5uQXD7cl-190" value="" style="endArrow=none;html=1;rounded=0;strokeColor=light-dark(#000000,#FF0000);strokeWidth=8;fontSize=36;fontStyle=1" parent="euKuNFVMx4uJ5uQXD7cl-124" edge="1">
          <mxGeometry width="50" height="50" relative="1" as="geometry">
            <mxPoint x="720" y="1000" as="sourcePoint" />
            <mxPoint x="720" y="40" as="targetPoint" />
          </mxGeometry>
        </mxCell>
        <mxCell id="euKuNFVMx4uJ5uQXD7cl-192" value="" style="endArrow=none;html=1;rounded=0;strokeColor=light-dark(#000000,#000000);strokeWidth=8;" parent="euKuNFVMx4uJ5uQXD7cl-124" edge="1">
          <mxGeometry width="50" height="50" relative="1" as="geometry">
            <mxPoint x="840" y="1280" as="sourcePoint" />
            <mxPoint x="840" y="320" as="targetPoint" />
          </mxGeometry>
        </mxCell>
        <mxCell id="euKuNFVMx4uJ5uQXD7cl-193" value="&lt;span style=&quot;color: rgba(0, 0, 0, 0); font-family: monospace; font-size: 0px; text-align: start; background-color: rgb(27, 29, 30);&quot;&gt;%3CmxGraphModel%3E%3Croot%3E%3CmxCell%20id%3D%220%22%2F%3E%3CmxCell%20id%3D%221%22%20parent%3D%220%22%2F%3E%3CmxCell%20id%3D%222%22%20value%3D%22%22%20style%3D%22endArrow%3Dnone%3Bhtml%3D1%3Brounded%3D0%3BstrokeColor%3Dlight-dark(%23000000%2C%23FF0000)%3B%22%20edge%3D%221%22%20parent%3D%221%22%3E%3CmxGeometry%20width%3D%2250%22%20height%3D%2250%22%20relative%3D%221%22%20as%3D%22geometry%22%3E%3CmxPoint%20x%3D%22880%22%20y%3D%221080%22%20as%3D%22sourcePoint%22%2F%3E%3CmxPoint%20x%3D%22880%22%20y%3D%22120%22%20as%3D%22targetPoint%22%2F%3E%3C%2FmxGeometry%3E%3C%2FmxCell%3E%3C%2Froot%3E%3C%2FmxGraphModel%3E&lt;/span&gt;" style="edgeLabel;html=1;align=center;verticalAlign=middle;resizable=0;points=[];fontStyle=1" parent="euKuNFVMx4uJ5uQXD7cl-192" vertex="1" connectable="0">
          <mxGeometry x="0.7838" y="5" relative="1" as="geometry">
            <mxPoint as="offset" />
          </mxGeometry>
        </mxCell>
        <mxCell id="euKuNFVMx4uJ5uQXD7cl-197" value="" style="group" parent="1" vertex="1" connectable="0">
          <mxGeometry x="-1830" y="920" width="2320" height="790" as="geometry" />
        </mxCell>
        <mxCell id="euKuNFVMx4uJ5uQXD7cl-200" value="" style="group" parent="euKuNFVMx4uJ5uQXD7cl-197" vertex="1" connectable="0">
          <mxGeometry x="-102.5" y="-5" width="2422.5" height="550" as="geometry" />
        </mxCell>
        <mxCell id="euKuNFVMx4uJ5uQXD7cl-198" value="" style="whiteSpace=wrap;html=1;aspect=fixed;" parent="euKuNFVMx4uJ5uQXD7cl-200" vertex="1">
          <mxGeometry x="0.5" width="335" height="335" as="geometry" />
        </mxCell>
        <mxCell id="euKuNFVMx4uJ5uQXD7cl-194" value="" style="image;aspect=fixed;html=1;points=[];align=center;fontSize=12;image=img/lib/azure2/general/Power.svg;strokeWidth=8;" parent="euKuNFVMx4uJ5uQXD7cl-200" vertex="1">
          <mxGeometry x="232.5" y="27" width="67.5" height="104.32" as="geometry" />
        </mxCell>
        <mxCell id="euKuNFVMx4uJ5uQXD7cl-196" value="&lt;font style=&quot;font-size: 65px;&quot;&gt;&lt;b&gt;18A/5V&lt;/b&gt;&lt;/font&gt;" style="text;html=1;align=center;verticalAlign=middle;whiteSpace=wrap;rounded=0;" parent="euKuNFVMx4uJ5uQXD7cl-200" vertex="1">
          <mxGeometry x="88" y="90" width="160" height="155" as="geometry" />
        </mxCell>
        <mxCell id="euKuNFVMx4uJ5uQXD7cl-229" value="" style="endArrow=none;html=1;rounded=0;strokeColor=light-dark(#000000,#000000);strokeWidth=8;" parent="euKuNFVMx4uJ5uQXD7cl-200" edge="1">
          <mxGeometry width="50" height="50" relative="1" as="geometry">
            <mxPoint x="572.5" y="255" as="sourcePoint" />
            <mxPoint x="572.5" y="1605" as="targetPoint" />
          </mxGeometry>
        </mxCell>
        <mxCell id="euKuNFVMx4uJ5uQXD7cl-122" value="" style="dashed=0;outlineConnect=0;html=1;align=center;labelPosition=center;verticalLabelPosition=bottom;verticalAlign=top;shape=mxgraph.webicons.arduino;gradientColor=#DFDEDE" parent="euKuNFVMx4uJ5uQXD7cl-197" vertex="1">
          <mxGeometry x="-30" y="470" width="328.75" height="320" as="geometry" />
        </mxCell>
        <mxCell id="euKuNFVMx4uJ5uQXD7cl-222" value="" style="endArrow=none;html=1;rounded=0;strokeColor=light-dark(#000000,#FF0000);strokeWidth=8;" parent="euKuNFVMx4uJ5uQXD7cl-197" edge="1">
          <mxGeometry width="50" height="50" relative="1" as="geometry">
            <mxPoint x="590" y="1490" as="sourcePoint" />
            <mxPoint x="580" y="110" as="targetPoint" />
          </mxGeometry>
        </mxCell>
        <mxCell id="k-jXRPapljl0dU40elGh-9" value="" style="endArrow=none;html=1;rounded=0;exitX=1;exitY=0.75;exitDx=0;exitDy=0;strokeColor=light-dark(#000000,#000000);strokeWidth=8;" parent="euKuNFVMx4uJ5uQXD7cl-197" edge="1">
          <mxGeometry width="50" height="50" relative="1" as="geometry">
            <mxPoint x="298.75" y="620" as="sourcePoint" />
            <mxPoint x="470" y="620" as="targetPoint" />
          </mxGeometry>
        </mxCell>
        <mxCell id="euKuNFVMx4uJ5uQXD7cl-201" value="" style="group" parent="1" vertex="1" connectable="0">
          <mxGeometry x="540" y="1440" width="480" height="345" as="geometry" />
        </mxCell>
        <mxCell id="euKuNFVMx4uJ5uQXD7cl-202" value="" style="whiteSpace=wrap;html=1;aspect=fixed;" parent="euKuNFVMx4uJ5uQXD7cl-201" vertex="1">
          <mxGeometry x="72.5" width="335" height="335" as="geometry" />
        </mxCell>
        <mxCell id="euKuNFVMx4uJ5uQXD7cl-203" value="" style="image;aspect=fixed;html=1;points=[];align=center;fontSize=12;image=img/lib/azure2/general/Power.svg;" parent="euKuNFVMx4uJ5uQXD7cl-201" vertex="1">
          <mxGeometry x="312.5" y="25" width="67.5" height="104.32" as="geometry" />
        </mxCell>
        <mxCell id="euKuNFVMx4uJ5uQXD7cl-204" value="&lt;font style=&quot;font-size: 65px;&quot;&gt;&lt;b style=&quot;&quot;&gt;3A/12V&lt;/b&gt;&lt;/font&gt;" style="text;html=1;align=center;verticalAlign=middle;whiteSpace=wrap;rounded=0;" parent="euKuNFVMx4uJ5uQXD7cl-201" vertex="1">
          <mxGeometry x="150" y="110" width="180" height="115" as="geometry" />
        </mxCell>
        <mxCell id="euKuNFVMx4uJ5uQXD7cl-208" value="" style="edgeStyle=orthogonalEdgeStyle;rounded=0;orthogonalLoop=1;jettySize=auto;html=1;strokeWidth=8;fillColor=#647687;strokeColor=light-dark(#314354,#565D65);spacing=5;startSize=8;" parent="1" source="euKuNFVMx4uJ5uQXD7cl-206" target="euKuNFVMx4uJ5uQXD7cl-122" edge="1">
          <mxGeometry relative="1" as="geometry">
            <mxPoint x="-1645" y="721" as="targetPoint" />
            <Array as="points">
              <mxPoint x="-1840" y="680" />
              <mxPoint x="-2040" y="680" />
              <mxPoint x="-2040" y="1580" />
            </Array>
          </mxGeometry>
        </mxCell>
        <mxCell id="euKuNFVMx4uJ5uQXD7cl-206" value="" style="sketch=0;aspect=fixed;pointerEvents=1;shadow=0;dashed=0;html=1;strokeColor=#314354;labelPosition=center;verticalLabelPosition=bottom;verticalAlign=top;align=center;fillColor=#647687;shape=mxgraph.azure.computer;fontColor=#ffffff;" parent="1" vertex="1">
          <mxGeometry x="-2450" y="50" width="840" height="756" as="geometry" />
        </mxCell>
        <mxCell id="V_p474o4OKsdejsqBRfG-18" value="" style="endArrow=none;html=1;rounded=0;entryX=0;entryY=0.5;entryDx=0;entryDy=0;strokeColor=light-dark(#000000,#00FF00);strokeWidth=8;" parent="1" source="euKuNFVMx4uJ5uQXD7cl-231" target="V_p474o4OKsdejsqBRfG-15" edge="1">
          <mxGeometry width="50" height="50" relative="1" as="geometry">
            <mxPoint x="-490" y="600" as="sourcePoint" />
            <mxPoint x="-140" y="109.38" as="targetPoint" />
            <Array as="points" />
          </mxGeometry>
        </mxCell>
        <mxCell id="k-jXRPapljl0dU40elGh-36" value="Data" style="edgeLabel;html=1;align=center;verticalAlign=middle;resizable=0;points=[];fontSize=28;fontStyle=1" parent="V_p474o4OKsdejsqBRfG-18" vertex="1" connectable="0">
          <mxGeometry x="0.6978" y="-1" relative="1" as="geometry">
            <mxPoint as="offset" />
          </mxGeometry>
        </mxCell>
        <mxCell id="euKuNFVMx4uJ5uQXD7cl-78" value="" style="endArrow=none;html=1;rounded=0;entryX=0;entryY=0.5;entryDx=0;entryDy=0;strokeColor=light-dark(#000000,#00FF00);strokeWidth=8;" parent="1" source="euKuNFVMx4uJ5uQXD7cl-233" target="euKuNFVMx4uJ5uQXD7cl-87" edge="1">
          <mxGeometry width="50" height="50" relative="1" as="geometry">
            <mxPoint x="-540" y="630" as="sourcePoint" />
            <mxPoint x="-140" y="549.38" as="targetPoint" />
            <Array as="points" />
          </mxGeometry>
        </mxCell>
        <mxCell id="k-jXRPapljl0dU40elGh-40" value="Data" style="edgeLabel;html=1;align=center;verticalAlign=middle;resizable=0;points=[];fontSize=28;fontStyle=1" parent="euKuNFVMx4uJ5uQXD7cl-78" vertex="1" connectable="0">
          <mxGeometry x="0.6963" relative="1" as="geometry">
            <mxPoint as="offset" />
          </mxGeometry>
        </mxCell>
        <mxCell id="euKuNFVMx4uJ5uQXD7cl-97" value="" style="endArrow=none;html=1;rounded=0;entryX=0;entryY=0.5;entryDx=0;entryDy=0;strokeColor=light-dark(#000000,#00FF00);strokeWidth=8;" parent="1" source="euKuNFVMx4uJ5uQXD7cl-235" target="euKuNFVMx4uJ5uQXD7cl-106" edge="1">
          <mxGeometry width="50" height="50" relative="1" as="geometry">
            <mxPoint x="-340" y="1070" as="sourcePoint" />
            <mxPoint x="-140" y="1069.38" as="targetPoint" />
            <Array as="points" />
          </mxGeometry>
        </mxCell>
        <mxCell id="k-jXRPapljl0dU40elGh-43" value="Data" style="edgeLabel;html=1;align=center;verticalAlign=middle;resizable=0;points=[];fontSize=28;fontStyle=1" parent="euKuNFVMx4uJ5uQXD7cl-97" vertex="1" connectable="0">
          <mxGeometry x="0.695" y="1" relative="1" as="geometry">
            <mxPoint as="offset" />
          </mxGeometry>
        </mxCell>
        <mxCell id="euKuNFVMx4uJ5uQXD7cl-132" value="" style="endArrow=none;html=1;rounded=0;entryX=0;entryY=0.5;entryDx=0;entryDy=0;strokeColor=light-dark(#000000,#00FF00);strokeWidth=8;" parent="1" source="euKuNFVMx4uJ5uQXD7cl-237" target="euKuNFVMx4uJ5uQXD7cl-141" edge="1">
          <mxGeometry width="50" height="50" relative="1" as="geometry">
            <mxPoint x="-340" y="2010" as="sourcePoint" />
            <mxPoint x="-140" y="2009.38" as="targetPoint" />
            <Array as="points" />
          </mxGeometry>
        </mxCell>
        <mxCell id="k-jXRPapljl0dU40elGh-46" value="Data" style="edgeLabel;html=1;align=center;verticalAlign=middle;resizable=0;points=[];fontSize=28;fontStyle=1" parent="euKuNFVMx4uJ5uQXD7cl-132" vertex="1" connectable="0">
          <mxGeometry x="0.6974" y="-1" relative="1" as="geometry">
            <mxPoint as="offset" />
          </mxGeometry>
        </mxCell>
        <mxCell id="euKuNFVMx4uJ5uQXD7cl-155" value="" style="endArrow=none;html=1;rounded=0;entryX=0;entryY=0.5;entryDx=0;entryDy=0;strokeColor=light-dark(#000000,#00FF00);strokeWidth=8;" parent="1" source="euKuNFVMx4uJ5uQXD7cl-239" target="euKuNFVMx4uJ5uQXD7cl-164" edge="1">
          <mxGeometry width="50" height="50" relative="1" as="geometry">
            <mxPoint x="-870" y="1690" as="sourcePoint" />
            <mxPoint x="-140" y="2449.38" as="targetPoint" />
            <Array as="points" />
          </mxGeometry>
        </mxCell>
        <mxCell id="k-jXRPapljl0dU40elGh-49" value="Data" style="edgeLabel;html=1;align=center;verticalAlign=middle;resizable=0;points=[];fontSize=28;fontStyle=1" parent="euKuNFVMx4uJ5uQXD7cl-155" vertex="1" connectable="0">
          <mxGeometry x="0.6972" relative="1" as="geometry">
            <mxPoint as="offset" />
          </mxGeometry>
        </mxCell>
        <mxCell id="euKuNFVMx4uJ5uQXD7cl-174" value="" style="endArrow=none;html=1;rounded=0;entryX=0;entryY=0.5;entryDx=0;entryDy=0;strokeColor=light-dark(#000000,#00FF00);exitX=1;exitY=0.5;exitDx=0;exitDy=0;exitPerimeter=0;strokeWidth=8;" parent="1" source="euKuNFVMx4uJ5uQXD7cl-243" target="euKuNFVMx4uJ5uQXD7cl-183" edge="1">
          <mxGeometry width="50" height="50" relative="1" as="geometry">
            <mxPoint x="-340" y="2970" as="sourcePoint" />
            <mxPoint x="-140" y="2969.38" as="targetPoint" />
            <Array as="points" />
          </mxGeometry>
        </mxCell>
        <mxCell id="k-jXRPapljl0dU40elGh-52" value="Data" style="edgeLabel;html=1;align=center;verticalAlign=middle;resizable=0;points=[];fontSize=28;fontStyle=1" parent="euKuNFVMx4uJ5uQXD7cl-174" vertex="1" connectable="0">
          <mxGeometry x="0.6984" y="-1" relative="1" as="geometry">
            <mxPoint as="offset" />
          </mxGeometry>
        </mxCell>
        <mxCell id="euKuNFVMx4uJ5uQXD7cl-217" value="" style="endArrow=none;html=1;rounded=0;exitX=0.994;exitY=0.342;exitDx=0;exitDy=0;strokeColor=light-dark(#000000,#FF0000);strokeWidth=8;exitPerimeter=0;" parent="1" source="euKuNFVMx4uJ5uQXD7cl-198" edge="1">
          <mxGeometry width="50" height="50" relative="1" as="geometry">
            <mxPoint x="-1280" y="1140" as="sourcePoint" />
            <mxPoint x="-1250" y="1030" as="targetPoint" />
          </mxGeometry>
        </mxCell>
        <mxCell id="euKuNFVMx4uJ5uQXD7cl-218" value="" style="endArrow=none;html=1;rounded=0;exitX=0.996;exitY=0.763;exitDx=0;exitDy=0;strokeColor=light-dark(#000000,#000000);strokeWidth=8;exitPerimeter=0;" parent="1" source="euKuNFVMx4uJ5uQXD7cl-198" edge="1">
          <mxGeometry width="50" height="50" relative="1" as="geometry">
            <mxPoint x="-1280" y="1140" as="sourcePoint" />
            <mxPoint x="-1360" y="1170" as="targetPoint" />
          </mxGeometry>
        </mxCell>
        <mxCell id="euKuNFVMx4uJ5uQXD7cl-219" value="" style="endArrow=none;html=1;rounded=0;strokeColor=light-dark(#000000,#FF0000);strokeWidth=8;" parent="1" edge="1">
          <mxGeometry width="50" height="50" relative="1" as="geometry">
            <mxPoint x="-1250" y="1030" as="sourcePoint" />
            <mxPoint x="-1250" y="510" as="targetPoint" />
          </mxGeometry>
        </mxCell>
        <mxCell id="euKuNFVMx4uJ5uQXD7cl-223" value="" style="endArrow=none;html=1;rounded=0;strokeColor=light-dark(#000000,#FF0000);strokeWidth=8;" parent="1" edge="1">
          <mxGeometry width="50" height="50" relative="1" as="geometry">
            <mxPoint x="-380" y="2410" as="sourcePoint" />
            <mxPoint x="-1240" y="2410" as="targetPoint" />
          </mxGeometry>
        </mxCell>
        <mxCell id="euKuNFVMx4uJ5uQXD7cl-224" value="" style="endArrow=none;html=1;rounded=0;strokeColor=light-dark(#000000,#FF0000);entryX=0;entryY=0.25;entryDx=0;entryDy=0;strokeWidth=8;" parent="1" target="euKuNFVMx4uJ5uQXD7cl-202" edge="1">
          <mxGeometry width="50" height="50" relative="1" as="geometry">
            <mxPoint x="420" y="1524" as="sourcePoint" />
            <mxPoint x="700" y="1320" as="targetPoint" />
          </mxGeometry>
        </mxCell>
        <mxCell id="euKuNFVMx4uJ5uQXD7cl-225" value="" style="endArrow=none;html=1;rounded=0;strokeColor=light-dark(#000000,#000000);entryX=0;entryY=0.75;entryDx=0;entryDy=0;strokeWidth=8;" parent="1" target="euKuNFVMx4uJ5uQXD7cl-202" edge="1">
          <mxGeometry width="50" height="50" relative="1" as="geometry">
            <mxPoint x="460" y="1691" as="sourcePoint" />
            <mxPoint x="825" y="1207" as="targetPoint" />
          </mxGeometry>
        </mxCell>
        <mxCell id="euKuNFVMx4uJ5uQXD7cl-226" value="" style="endArrow=none;html=1;rounded=0;strokeColor=light-dark(#000000,#000000);strokeWidth=8;" parent="1" edge="1">
          <mxGeometry width="50" height="50" relative="1" as="geometry">
            <mxPoint x="-1360" y="590" as="sourcePoint" />
            <mxPoint x="-1360" y="1190" as="targetPoint" />
          </mxGeometry>
        </mxCell>
        <mxCell id="euKuNFVMx4uJ5uQXD7cl-227" value="" style="endArrow=none;html=1;rounded=0;strokeColor=light-dark(#000000,#000000);strokeWidth=8;" parent="1" edge="1">
          <mxGeometry width="50" height="50" relative="1" as="geometry">
            <mxPoint x="-1360" y="590" as="sourcePoint" />
            <mxPoint x="-310" y="590" as="targetPoint" />
          </mxGeometry>
        </mxCell>
        <mxCell id="euKuNFVMx4uJ5uQXD7cl-230" value="" style="endArrow=none;html=1;rounded=0;strokeColor=light-dark(#000000,#000000);strokeWidth=8;" parent="1" edge="1">
          <mxGeometry width="50" height="50" relative="1" as="geometry">
            <mxPoint x="-310" y="2520" as="sourcePoint" />
            <mxPoint x="-1360" y="2520" as="targetPoint" />
          </mxGeometry>
        </mxCell>
        <mxCell id="euKuNFVMx4uJ5uQXD7cl-232" value="" style="endArrow=none;html=1;rounded=0;entryX=0;entryY=0.5;entryDx=0;entryDy=0;strokeColor=light-dark(#000000,#00FF00);strokeWidth=8;" parent="1" source="euKuNFVMx4uJ5uQXD7cl-122" target="euKuNFVMx4uJ5uQXD7cl-231" edge="1">
          <mxGeometry width="50" height="50" relative="1" as="geometry">
            <mxPoint x="-1640" y="1420" as="sourcePoint" />
            <mxPoint x="-140" y="110" as="targetPoint" />
            <Array as="points">
              <mxPoint x="-1100" y="110" />
            </Array>
          </mxGeometry>
        </mxCell>
        <mxCell id="euKuNFVMx4uJ5uQXD7cl-231" value="&lt;span style=&quot;font-size: 36px; text-wrap-mode: wrap;&quot;&gt;460&lt;/span&gt;&lt;span style=&quot;font-size: 36px; text-wrap-mode: wrap;&quot;&gt;&lt;span style=&quot;font-family: Arial, sans-serif;&quot; lang=&quot;EN-US&quot;&gt;Ω&lt;/span&gt;&lt;/span&gt;" style="pointerEvents=1;verticalLabelPosition=bottom;shadow=0;dashed=0;align=center;html=1;verticalAlign=top;shape=mxgraph.electrical.resistors.resistor_2;strokeColor=light-dark(#000000,#000000);strokeWidth=8;fontColor=light-dark(#000000,#000000);fontStyle=1" parent="1" vertex="1">
          <mxGeometry x="-900" y="100" width="100" height="20" as="geometry" />
        </mxCell>
        <mxCell id="euKuNFVMx4uJ5uQXD7cl-234" value="" style="endArrow=none;html=1;rounded=0;entryX=0;entryY=0.5;entryDx=0;entryDy=0;strokeColor=light-dark(#000000,#00FF00);strokeWidth=8;" parent="1" source="euKuNFVMx4uJ5uQXD7cl-122" target="euKuNFVMx4uJ5uQXD7cl-233" edge="1">
          <mxGeometry width="50" height="50" relative="1" as="geometry">
            <mxPoint x="-1612" y="1420" as="sourcePoint" />
            <mxPoint x="-140" y="550" as="targetPoint" />
            <Array as="points">
              <mxPoint x="-1100" y="550" />
            </Array>
          </mxGeometry>
        </mxCell>
        <mxCell id="euKuNFVMx4uJ5uQXD7cl-233" value="&lt;span style=&quot;font-size: 36px; text-wrap-mode: wrap;&quot;&gt;460&lt;/span&gt;&lt;span style=&quot;font-size: 36px; text-wrap-mode: wrap;&quot;&gt;&lt;span style=&quot;font-family: Arial, sans-serif;&quot; lang=&quot;EN-US&quot;&gt;Ω&lt;/span&gt;&lt;/span&gt;" style="pointerEvents=1;verticalLabelPosition=bottom;shadow=0;dashed=0;align=center;html=1;verticalAlign=top;shape=mxgraph.electrical.resistors.resistor_2;strokeColor=light-dark(#000000,#000000);strokeWidth=8;fontColor=light-dark(#000000,#000000);fontStyle=1" parent="1" vertex="1">
          <mxGeometry x="-900" y="540" width="100" height="20" as="geometry" />
        </mxCell>
        <mxCell id="euKuNFVMx4uJ5uQXD7cl-236" value="" style="endArrow=none;html=1;rounded=0;entryX=0;entryY=0.5;entryDx=0;entryDy=0;strokeColor=light-dark(#000000,#00FF00);strokeWidth=8;" parent="1" source="euKuNFVMx4uJ5uQXD7cl-122" target="euKuNFVMx4uJ5uQXD7cl-235" edge="1">
          <mxGeometry width="50" height="50" relative="1" as="geometry">
            <mxPoint x="-1541" y="1442" as="sourcePoint" />
            <mxPoint x="-140" y="1070" as="targetPoint" />
            <Array as="points">
              <mxPoint x="-1100" y="1070" />
            </Array>
          </mxGeometry>
        </mxCell>
        <mxCell id="euKuNFVMx4uJ5uQXD7cl-235" value="&lt;span style=&quot;font-size: 36px; text-wrap-mode: wrap;&quot;&gt;460&lt;/span&gt;&lt;span style=&quot;font-size: 36px; text-wrap-mode: wrap;&quot;&gt;&lt;span style=&quot;font-family: Arial, sans-serif;&quot; lang=&quot;EN-US&quot;&gt;Ω&lt;/span&gt;&lt;/span&gt;" style="pointerEvents=1;verticalLabelPosition=bottom;shadow=0;dashed=0;align=center;html=1;verticalAlign=top;shape=mxgraph.electrical.resistors.resistor_2;strokeColor=light-dark(#000000,#000000);strokeWidth=8;fontColor=light-dark(#000000,#000000);fontStyle=1" parent="1" vertex="1">
          <mxGeometry x="-900" y="1060" width="100" height="20" as="geometry" />
        </mxCell>
        <mxCell id="euKuNFVMx4uJ5uQXD7cl-238" value="" style="endArrow=none;html=1;rounded=0;entryX=0;entryY=0.5;entryDx=0;entryDy=0;strokeColor=light-dark(#000000,#00FF00);strokeWidth=8;" parent="1" source="euKuNFVMx4uJ5uQXD7cl-122" target="euKuNFVMx4uJ5uQXD7cl-237" edge="1">
          <mxGeometry width="50" height="50" relative="1" as="geometry">
            <mxPoint x="-1541" y="1697" as="sourcePoint" />
            <mxPoint x="-140" y="2010" as="targetPoint" />
            <Array as="points">
              <mxPoint x="-1100" y="2010" />
            </Array>
          </mxGeometry>
        </mxCell>
        <mxCell id="euKuNFVMx4uJ5uQXD7cl-237" value="&lt;span style=&quot;font-size: 36px; text-wrap-mode: wrap;&quot;&gt;460&lt;/span&gt;&lt;span style=&quot;font-size: 36px; text-wrap-mode: wrap;&quot;&gt;&lt;span style=&quot;font-family: Arial, sans-serif;&quot; lang=&quot;EN-US&quot;&gt;Ω&lt;/span&gt;&lt;/span&gt;" style="pointerEvents=1;verticalLabelPosition=bottom;shadow=0;dashed=0;align=center;html=1;verticalAlign=top;shape=mxgraph.electrical.resistors.resistor_2;strokeColor=light-dark(#000000,#000000);strokeWidth=8;fontColor=light-dark(#000000,#000000);fontStyle=1" parent="1" vertex="1">
          <mxGeometry x="-900" y="2000" width="100" height="20" as="geometry" />
        </mxCell>
        <mxCell id="euKuNFVMx4uJ5uQXD7cl-242" value="" style="endArrow=none;html=1;rounded=0;entryX=0;entryY=0.5;entryDx=0;entryDy=0;strokeColor=light-dark(#000000,#00FF00);strokeWidth=8;" parent="1" source="euKuNFVMx4uJ5uQXD7cl-122" target="euKuNFVMx4uJ5uQXD7cl-239" edge="1">
          <mxGeometry width="50" height="50" relative="1" as="geometry">
            <mxPoint x="-1594" y="1740" as="sourcePoint" />
            <mxPoint x="-140" y="2450" as="targetPoint" />
            <Array as="points" />
          </mxGeometry>
        </mxCell>
        <mxCell id="euKuNFVMx4uJ5uQXD7cl-239" value="&lt;span style=&quot;font-size: 36px; text-wrap-mode: wrap;&quot;&gt;460&lt;/span&gt;&lt;span style=&quot;font-size: 36px; text-wrap-mode: wrap;&quot;&gt;&lt;span style=&quot;font-family: Arial, sans-serif;&quot; lang=&quot;EN-US&quot;&gt;Ω&lt;/span&gt;&lt;/span&gt;" style="pointerEvents=1;verticalLabelPosition=bottom;shadow=0;dashed=0;align=center;html=1;verticalAlign=top;shape=mxgraph.electrical.resistors.resistor_2;strokeColor=light-dark(#000000,#000000);strokeWidth=8;fontColor=light-dark(#000000,#000000);fontStyle=1" parent="1" vertex="1">
          <mxGeometry x="-900" y="2440" width="100" height="20" as="geometry" />
        </mxCell>
        <mxCell id="euKuNFVMx4uJ5uQXD7cl-245" value="" style="endArrow=none;html=1;rounded=0;entryX=0;entryY=0.5;entryDx=0;entryDy=0;strokeColor=light-dark(#000000,#00FF00);strokeWidth=8;" parent="1" source="euKuNFVMx4uJ5uQXD7cl-122" target="euKuNFVMx4uJ5uQXD7cl-243" edge="1">
          <mxGeometry width="50" height="50" relative="1" as="geometry">
            <mxPoint x="-1636" y="1740" as="sourcePoint" />
            <mxPoint x="-140" y="2970" as="targetPoint" />
            <Array as="points" />
          </mxGeometry>
        </mxCell>
        <mxCell id="euKuNFVMx4uJ5uQXD7cl-243" value="&lt;span style=&quot;font-size: 36px; text-wrap-mode: wrap;&quot;&gt;460&lt;/span&gt;&lt;span style=&quot;font-size: 36px; text-wrap-mode: wrap;&quot;&gt;&lt;span style=&quot;font-family: Arial, sans-serif;&quot; lang=&quot;EN-US&quot;&gt;Ω&lt;/span&gt;&lt;/span&gt;" style="pointerEvents=1;verticalLabelPosition=bottom;shadow=0;dashed=0;align=center;html=1;verticalAlign=top;shape=mxgraph.electrical.resistors.resistor_2;strokeColor=light-dark(#000000,#000000);strokeWidth=8;fontColor=light-dark(#000000,#000000);fontStyle=1" parent="1" vertex="1">
          <mxGeometry x="-900" y="2960" width="100" height="20" as="geometry" />
        </mxCell>
        <mxCell id="k-jXRPapljl0dU40elGh-14" value="" style="group;strokeColor=light-dark(#000000,transparent);" parent="1" vertex="1" connectable="0">
          <mxGeometry x="499.99999999999994" y="65" width="490.00000000000006" height="1275" as="geometry" />
        </mxCell>
        <mxCell id="k-jXRPapljl0dU40elGh-10" value="" style="strokeWidth=14;html=1;shape=mxgraph.flowchart.annotation_1;align=left;pointerEvents=1;rotation=-180;fillColor=#fff2cc;strokeColor=light-dark(#d6b656, #000000);" parent="k-jXRPapljl0dU40elGh-14" vertex="1">
          <mxGeometry x="5.684341886080802e-14" width="190" height="1275" as="geometry" />
        </mxCell>
        <mxCell id="k-jXRPapljl0dU40elGh-15" value="" style="group" parent="1" vertex="1" connectable="0">
          <mxGeometry x="500" y="1951.5" width="490.00000000000006" height="1275" as="geometry" />
        </mxCell>
        <mxCell id="k-jXRPapljl0dU40elGh-16" value="" style="strokeWidth=14;html=1;shape=mxgraph.flowchart.annotation_1;align=left;pointerEvents=1;rotation=-180;strokeColor=light-dark(#000000,#000000);" parent="k-jXRPapljl0dU40elGh-15" vertex="1">
          <mxGeometry x="5.684341886080802e-14" width="190" height="1275" as="geometry" />
        </mxCell>
        <mxCell id="k-jXRPapljl0dU40elGh-18" value="" style="image;aspect=fixed;html=1;points=[];align=center;fontSize=12;image=img/lib/azure2/ai_machine_learning/Bonsai.svg;" parent="1" vertex="1">
          <mxGeometry x="-2320" y="220" width="223.64" height="217.06" as="geometry" />
        </mxCell>
        <mxCell id="k-jXRPapljl0dU40elGh-19" value="" style="dashed=0;outlineConnect=0;html=1;align=center;labelPosition=center;verticalLabelPosition=bottom;verticalAlign=top;shape=mxgraph.weblogos.arduino;fillColor=#36868D;strokeColor=none" parent="1" vertex="1">
          <mxGeometry x="-2010" y="247.06" width="270" height="190" as="geometry" />
        </mxCell>
        <mxCell id="k-jXRPapljl0dU40elGh-23" value="" style="endArrow=none;html=1;rounded=0;strokeColor=light-dark(#000000,#FF0000);strokeWidth=8;" parent="1" edge="1">
          <mxGeometry width="50" height="50" relative="1" as="geometry">
            <mxPoint x="-1250" y="510" as="sourcePoint" />
            <mxPoint x="-380" y="510" as="targetPoint" />
          </mxGeometry>
        </mxCell>
        <mxCell id="k-jXRPapljl0dU40elGh-11" value="&lt;font style=&quot;font-size: 72px;&quot;&gt;6 Strips of each&lt;/font&gt;" style="text;strokeColor=none;fillColor=none;html=1;fontSize=24;fontStyle=1;verticalAlign=middle;align=center;fontColor=light-dark(#000000,#000000);" parent="1" vertex="1">
          <mxGeometry x="930" y="682.5" width="240" height="40" as="geometry" />
        </mxCell>
        <mxCell id="k-jXRPapljl0dU40elGh-84" value="&lt;font style=&quot;font-size: 72px;&quot;&gt;6 Strips of each&lt;/font&gt;" style="text;strokeColor=none;fillColor=none;html=1;fontSize=24;fontStyle=1;verticalAlign=middle;align=center;fontColor=light-dark(#000000,#000000);" parent="1" vertex="1">
          <mxGeometry x="930" y="2570" width="240" height="40" as="geometry" />
        </mxCell>
      </root>
    </mxGraphModel>
  </diagram>
</mxfile>
